<svg version="1.1" id="Layer_1" xmlns="http://www.w3.org/2000/svg" xmlns:xlink="http://www.w3.org/1999/xlink" x="0px" y="0px"
	 width="100%" viewBox="0 0 960 1090" enable-background="new 0 0 960 1090" xml:space="preserve">
<path fill="#FFFFFF" opacity="1.000000" stroke="none" 
	d="
M732.000000,1.000000 
	C808.324585,1.000000 884.649109,1.000000 960.980225,1.000000 
	C960.986816,364.282867 960.986816,727.565735 960.986816,1090.924316 
	C641.087219,1090.924316 321.174438,1090.924316 1.130813,1090.924316 
	C1.130813,727.666687 1.130813,364.333344 1.130813,1.000000 
	C86.103493,1.000000 171.093796,1.000000 256.343750,1.299208 
	C228.589554,11.795880 208.296097,37.240189 207.941589,65.019188 
	C207.331284,112.838791 207.502533,160.671692 207.735214,208.497131 
	C207.828430,227.653290 214.891968,244.542709 227.274261,259.104462 
	C230.891556,263.358429 235.072784,267.132812 239.104584,271.238098 
	C238.381104,271.910248 237.802689,272.486389 237.184540,273.016205 
	C218.786514,288.784912 208.447571,308.739716 207.784515,332.965240 
	C207.155579,355.944733 207.477325,378.956573 207.702499,401.951050 
	C207.861588,418.195770 212.931213,433.103973 222.349457,446.248260 
	C227.134521,452.926453 233.117371,458.746429 238.662643,465.072906 
	C237.670227,465.953156 236.280869,467.138733 234.942734,468.379547 
	C218.196930,483.906891 208.359879,502.980011 207.715836,525.859985 
	C207.059692,549.169617 207.368164,572.519775 207.788818,595.842529 
	C208.185211,617.819275 216.900513,636.436462 232.388855,651.927612 
	C234.576065,654.115234 236.918686,656.147400 239.290527,658.345215 
	C238.084518,659.397156 237.203903,660.156372 236.332764,660.926392 
	C218.778152,676.443054 208.521820,695.830811 207.754440,719.268372 
	C206.996857,742.406738 207.542572,765.590454 207.660828,788.753540 
	C207.719345,800.216614 210.338120,811.182068 215.221924,821.546387 
	C220.822479,833.431885 228.747421,843.561340 239.334137,851.973022 
	C238.364365,852.856567 237.672073,853.514526 236.951416,854.139771 
	C219.110184,869.620300 208.555054,889.062195 207.796402,912.702393 
	C207.016541,937.004517 206.829285,961.395508 207.962769,985.673828 
	C210.009811,1029.519531 246.639114,1063.504150 290.534210,1063.508057 
	C425.357300,1063.519897 560.180420,1063.515625 695.003479,1063.488037 
	C698.993530,1063.487183 702.996033,1063.299805 706.971558,1062.955566 
	C745.655701,1059.604980 779.054810,1026.162231 780.879761,987.449524 
	C782.031860,963.010681 781.539185,938.470764 781.111389,913.987915 
	C780.740784,892.777222 772.178467,874.688293 757.682129,859.362305 
	C755.218323,856.757446 752.450989,854.439758 749.686218,851.861023 
	C773.444458,832.188171 782.747620,806.913879 781.616089,776.942566 
	C780.987854,760.301025 781.469421,743.615967 781.525757,726.950745 
	C781.588135,708.490479 777.251160,691.275024 766.302795,676.238647 
	C761.561279,669.726685 755.753967,663.990906 750.245117,657.690186 
	C750.496155,657.452759 751.059387,656.872009 751.671265,656.348083 
	C770.673767,640.076843 780.813171,619.428284 781.307617,594.437012 
	C781.732788,572.947571 781.574402,551.442932 781.424133,529.946777 
	C781.313782,514.152527 777.512573,499.176453 768.606812,486.051605 
	C763.275574,478.194855 756.645691,471.219360 750.492676,463.717560 
	C750.782349,463.453522 751.507812,462.774292 752.252075,462.116272 
	C770.650574,445.848541 780.856018,425.531097 781.335571,400.909485 
	C781.763794,378.921234 781.558350,356.915497 781.318237,334.920929 
	C781.091003,314.101654 773.532349,296.036865 759.690796,280.569427 
	C756.626404,277.145050 753.391602,273.873199 750.179016,270.471588 
	C750.895203,269.814453 751.735229,269.018097 752.602051,268.252045 
	C769.868652,252.992142 780.596985,233.953873 780.995361,210.902100 
	C781.807312,163.921890 781.508057,116.918945 781.320923,69.926735 
	C781.244263,50.679962 774.210205,33.951630 760.870850,19.926443 
	C752.708984,11.345012 742.721375,5.633500 732.000000,1.000000 
z"/>
<path fill="#010201" opacity="1.000000" stroke="none" 
	d="
M731.531372,1.000000 
	C742.721375,5.633500 752.708984,11.345012 760.870850,19.926443 
	C774.210205,33.951630 781.244263,50.679962 781.320923,69.926735 
	C781.508057,116.918945 781.807312,163.921890 780.995361,210.902100 
	C780.596985,233.953873 769.868652,252.992142 752.602051,268.252045 
	C751.735229,269.018097 750.895203,269.814453 750.179016,270.471588 
	C753.391602,273.873199 756.626404,277.145050 759.690796,280.569427 
	C773.532349,296.036865 781.091003,314.101654 781.318237,334.920929 
	C781.558350,356.915497 781.763794,378.921234 781.335571,400.909485 
	C780.856018,425.531097 770.650574,445.848541 752.252075,462.116272 
	C751.507812,462.774292 750.782349,463.453522 750.492676,463.717560 
	C756.645691,471.219360 763.275574,478.194855 768.606812,486.051605 
	C777.512573,499.176453 781.313782,514.152527 781.424133,529.946777 
	C781.574402,551.442932 781.732788,572.947571 781.307617,594.437012 
	C780.813171,619.428284 770.673767,640.076843 751.671265,656.348083 
	C751.059387,656.872009 750.496155,657.452759 750.245117,657.690186 
	C755.753967,663.990906 761.561279,669.726685 766.302795,676.238647 
	C777.251160,691.275024 781.588135,708.490479 781.525757,726.950745 
	C781.469421,743.615967 780.987854,760.301025 781.616089,776.942566 
	C782.747620,806.913879 773.444458,832.188171 749.686218,851.861023 
	C752.450989,854.439758 755.218323,856.757446 757.682129,859.362305 
	C772.178467,874.688293 780.740784,892.777222 781.111389,913.987915 
	C781.539185,938.470764 782.031860,963.010681 780.879761,987.449524 
	C779.054810,1026.162231 745.655701,1059.604980 706.971558,1062.955566 
	C702.996033,1063.299805 698.993530,1063.487183 695.003479,1063.488037 
	C560.180420,1063.515625 425.357300,1063.519897 290.534210,1063.508057 
	C246.639114,1063.504150 210.009811,1029.519531 207.962769,985.673828 
	C206.829285,961.395508 207.016541,937.004517 207.796402,912.702393 
	C208.555054,889.062195 219.110184,869.620300 236.951416,854.139771 
	C237.672073,853.514526 238.364365,852.856567 239.334137,851.973022 
	C228.747421,843.561340 220.822479,833.431885 215.221924,821.546387 
	C210.338120,811.182068 207.719345,800.216614 207.660828,788.753540 
	C207.542572,765.590454 206.996857,742.406738 207.754440,719.268372 
	C208.521820,695.830811 218.778152,676.443054 236.332764,660.926392 
	C237.203903,660.156372 238.084518,659.397156 239.290527,658.345215 
	C236.918686,656.147400 234.576065,654.115234 232.388855,651.927612 
	C216.900513,636.436462 208.185211,617.819275 207.788818,595.842529 
	C207.368164,572.519775 207.059692,549.169617 207.715836,525.859985 
	C208.359879,502.980011 218.196930,483.906891 234.942734,468.379547 
	C236.280869,467.138733 237.670227,465.953156 238.662643,465.072906 
	C233.117371,458.746429 227.134521,452.926453 222.349457,446.248260 
	C212.931213,433.103973 207.861588,418.195770 207.702499,401.951050 
	C207.477325,378.956573 207.155579,355.944733 207.784515,332.965240 
	C208.447571,308.739716 218.786514,288.784912 237.184540,273.016205 
	C237.802689,272.486389 238.381104,271.910248 239.104584,271.238098 
	C235.072784,267.132812 230.891556,263.358429 227.274261,259.104462 
	C214.891968,244.542709 207.828430,227.653290 207.735214,208.497131 
	C207.502533,160.671692 207.331284,112.838791 207.941589,65.019188 
	C208.296097,37.240189 228.589554,11.795880 256.801697,1.299208 
	C415.020905,1.000000 573.041809,1.000000 731.531372,1.000000 
M730.513245,821.868225 
	C730.715393,821.583801 730.917603,821.299377 731.536316,820.856506 
	C731.798157,820.681091 731.958740,820.438599 732.504456,819.905334 
	C732.694946,819.612366 732.885437,819.319336 733.002808,819.020325 
	C733.002808,819.020325 733.051758,819.074890 733.658752,818.820923 
	C734.288940,817.928284 734.919067,817.035706 736.032654,815.719971 
	C738.381470,811.264954 740.730286,806.809875 743.507690,802.026672 
	C743.602966,801.694092 743.698242,801.361511 743.977112,800.389648 
	C744.038208,799.951050 744.099304,799.512390 744.680115,798.498657 
	C745.134216,795.729919 745.969788,792.962952 745.982117,790.192261 
	C746.083496,767.406128 746.052307,744.619263 745.987000,721.832886 
	C745.981934,720.073669 745.411377,718.316101 745.169678,715.775940 
	C742.526367,699.636108 733.704651,688.132751 718.697388,680.487549 
	C718.107788,680.319092 717.518250,680.150696 716.720459,679.839600 
	C716.720459,679.839600 716.477600,679.908447 715.960144,679.356079 
	C714.989014,679.187622 714.017822,679.019104 713.002319,678.947693 
	C713.002319,678.947693 713.091431,678.888977 712.671570,678.258728 
	C710.127563,677.785767 707.583496,677.312805 705.000183,676.908813 
	C705.000183,676.908813 705.079224,676.916382 704.516052,676.276672 
	C702.357910,676.179199 700.199829,675.998047 698.041626,675.996826 
	C666.208740,675.978760 634.375854,675.984619 602.542969,675.984985 
	C498.377716,675.986206 394.212341,675.926147 290.047577,676.154419 
	C284.324585,676.166931 278.606842,678.577759 272.905640,679.794312 
	C272.905640,679.794312 272.829224,679.769836 272.155182,679.806274 
	C271.062347,680.479004 269.969543,681.151672 268.904846,681.785950 
	C268.904846,681.785950 268.857361,681.782593 268.149475,681.729980 
	C266.070251,683.133850 263.991028,684.537720 261.977722,685.985352 
	C261.977722,685.985352 261.968872,685.906738 261.438232,686.058105 
	C261.253143,686.355469 261.068054,686.652893 260.956268,686.915833 
	C260.956268,686.915833 260.903534,686.854309 260.298737,686.994629 
	C259.540558,687.667236 258.782410,688.339905 257.386627,689.237976 
	C249.153015,697.707336 243.213196,707.520203 243.024506,719.533875 
	C242.653549,743.151245 242.406952,766.795837 243.153580,790.396057 
	C243.610016,804.823914 250.549637,816.630554 262.958557,825.721130 
	C265.257935,826.880859 267.557312,828.040649 269.925568,829.176758 
	C269.925568,829.176758 269.880280,829.119751 270.238831,829.739990 
	C277.631866,833.887451 285.728394,834.253784 293.926880,834.252930 
	C424.453094,834.239319 554.979309,834.250549 685.505554,834.239868 
	C691.497192,834.239380 697.618164,834.822327 703.444824,833.799683 
	C709.480530,832.740356 715.230957,830.055237 721.013245,828.084351 
	C721.013245,828.084351 721.084900,828.143555 721.762573,828.059204 
	C723.211121,827.071472 724.659729,826.083740 725.999146,825.090332 
	C725.999146,825.090332 726.097229,825.138733 726.713318,825.010010 
	C727.491028,824.348938 728.268799,823.687927 729.002319,822.998169 
	C729.002319,822.998169 729.014282,823.049316 729.494568,822.858826 
	C729.681885,822.577942 729.869202,822.296997 730.000488,821.999634 
	C730.000488,821.999634 730.015930,822.055908 730.513245,821.868225 
M252.065323,1008.546631 
	C252.356659,1008.739014 252.648010,1008.931396 252.892593,1009.055969 
	C252.892593,1009.055969 252.837769,1009.117432 252.997345,1009.776550 
	C255.937683,1012.583252 258.878021,1015.390015 261.849670,1018.182007 
	C261.849670,1018.182007 261.870728,1018.154602 262.125793,1018.786133 
	C265.405334,1020.549744 268.684875,1022.313354 271.995239,1024.009399 
	C271.995239,1024.009399 271.928406,1024.041382 272.298218,1024.528442 
	C272.873688,1024.692017 273.449158,1024.855591 274.265900,1025.164673 
	C274.265900,1025.164673 274.543121,1025.114868 275.111847,1025.693604 
	C277.771301,1026.175415 280.430786,1026.657227 283.313782,1027.261841 
	C283.313782,1027.261841 283.497559,1027.084961 284.213318,1027.663208 
	C285.865540,1027.776367 287.517792,1027.988525 289.170013,1027.988647 
	C425.845642,1028.004639 562.521240,1028.008301 699.196899,1027.967041 
	C701.285950,1027.966431 703.374878,1027.399170 706.252686,1027.182495 
	C723.869263,1025.768799 740.443604,1010.218323 745.074219,990.160034 
	C745.399719,988.204895 746.003601,986.250427 746.008240,984.294495 
	C746.063354,961.149292 746.363464,937.995544 745.790405,914.864075 
	C745.641052,908.839172 742.695740,902.883484 740.965393,896.197144 
	C736.793213,891.093811 732.621033,885.990479 728.004150,880.328735 
	C725.703064,878.835144 723.401978,877.341492 721.044067,875.904663 
	C721.044067,875.904663 721.113953,875.944397 720.937500,875.440918 
	C720.620422,875.305359 720.303345,875.169739 719.714844,874.852600 
	C719.714844,874.852600 719.388428,874.841980 718.853088,874.317993 
	C716.259583,873.501587 713.666138,872.685120 711.007935,871.922424 
	C711.007935,871.922424 711.091553,871.932007 710.561523,871.352600 
	C707.792236,870.891724 705.027283,870.063293 702.252930,870.030334 
	C685.603577,869.832703 668.952026,869.754639 652.301208,869.752075 
	C533.066406,869.733826 413.831482,869.693176 294.596954,869.878479 
	C287.956970,869.888794 281.320038,871.840576 273.993225,872.905884 
	C272.333832,873.611755 270.674438,874.317627 268.471100,875.077942 
	C268.268646,875.358398 268.066193,875.638794 267.930817,875.866089 
	C267.930817,875.866089 267.862762,875.814148 267.187469,875.916138 
	C265.416138,877.242981 263.644775,878.569824 261.990967,879.917297 
	C261.990967,879.917297 261.894073,879.847534 261.236084,880.002563 
	C259.141052,881.994019 257.046051,883.985474 255.001236,885.998535 
	C255.001236,885.998535 254.975769,885.950012 254.384186,886.271973 
	C252.523788,889.131714 250.663391,891.991455 248.817902,894.935730 
	C248.817902,894.935730 248.864044,894.863342 248.304413,895.145325 
	C248.146881,895.743103 247.989349,896.340942 247.922821,896.964661 
	C247.922821,896.964661 247.888489,896.876465 247.272156,897.244934 
	C245.825775,902.789429 243.243332,908.311035 243.131378,913.882324 
	C242.668121,936.935791 242.873138,960.004761 243.049911,983.066406 
	C243.075531,986.410583 244.281265,989.745728 244.943130,993.002502 
	C244.943130,993.002502 244.882706,993.058777 244.902710,993.819946 
	C246.248184,996.906311 247.593643,999.992676 248.945023,1002.995361 
	C248.945023,1002.995361 248.892303,1003.060608 248.957397,1003.698669 
	C249.599365,1004.507324 250.241333,1005.315979 250.950012,1006.053650 
	C250.950012,1006.053650 250.852646,1006.054321 250.876297,1006.668274 
	C251.237015,1007.136292 251.597748,1007.604370 251.993881,1008.011475 
	C251.993881,1008.011475 251.924271,1008.022156 252.065323,1008.546631 
M731.938843,41.440060 
	C731.645447,41.253948 731.352112,41.067837 731.080444,40.971375 
	C731.080444,40.971375 731.123657,40.889843 730.819946,40.268055 
	C724.429688,35.826237 717.493835,32.961185 709.578857,32.961021 
	C565.965942,32.958065 422.353058,32.953140 278.740204,33.001717 
	C276.824615,33.002361 274.909302,33.686733 272.299896,33.947304 
	C271.503693,34.267246 270.707520,34.587189 269.937653,34.838989 
	C269.937653,34.838989 269.870209,34.810913 269.117920,34.845402 
	C266.372528,36.191872 263.627106,37.538345 260.972198,38.855736 
	C260.972198,38.855736 260.878815,38.838024 260.255493,38.944508 
	C259.455597,39.583092 258.655670,40.221676 257.932373,40.813843 
	C257.932373,40.813843 257.843811,40.800461 257.175201,40.926910 
	C254.743530,43.588974 252.311859,46.251041 249.935928,48.974575 
	C249.935928,48.974575 249.954758,48.893749 249.450394,49.079929 
	C249.300674,49.390839 249.150970,49.701748 248.846420,50.251152 
	C248.846420,50.251152 248.888794,50.532330 248.309677,50.971382 
	C247.802551,52.255558 247.295441,53.539734 246.798462,54.887302 
	C246.798462,54.887302 246.862045,54.896137 246.189468,55.068645 
	C245.757126,56.372227 245.324783,57.675808 244.968338,58.987015 
	C244.968338,58.987015 244.947830,58.913551 244.337677,59.395416 
	C243.754227,63.038887 243.170792,66.682358 242.367462,71.699059 
	C244.987473,69.821449 246.148483,68.989426 248.030579,68.077179 
	C257.715393,63.981178 267.593018,60.923325 278.300781,60.926258 
	C421.529053,60.965481 564.757324,60.974888 707.985535,60.864498 
	C720.049011,60.855202 731.247314,63.676579 742.636230,69.123360 
	C743.656311,69.614304 744.676392,70.105247 746.555176,71.009460 
	C745.932434,68.248573 745.525269,66.443626 745.212952,64.339043 
	C745.212952,64.339043 745.112915,64.041092 745.151489,63.239731 
	C744.108521,60.478767 743.065491,57.717808 742.001953,55.002819 
	C742.001953,55.002819 742.046814,54.979858 741.978394,54.261581 
	C740.011414,51.471798 738.044434,48.682014 736.019592,45.949718 
	C736.019592,45.949718 736.100281,45.962074 735.921692,45.441467 
	C735.627625,45.231995 735.333618,45.022522 734.892212,44.412834 
	C734.727844,44.159996 734.497986,44.003029 734.026245,43.311604 
	C733.375732,42.835434 732.725281,42.359264 732.019348,41.939823 
	C732.019348,41.939823 732.096313,41.958874 731.938843,41.440060 
M744.127136,517.250793 
	C743.796936,516.366150 743.466675,515.481445 743.093750,513.886536 
	C737.059021,496.529327 719.978516,483.164734 702.817688,482.369843 
	C700.329468,482.245941 697.841309,482.013916 695.353088,482.013672 
	C561.590515,481.999573 427.827972,482.003326 294.065430,482.021179 
	C291.407135,482.021545 288.748840,482.211639 285.318481,482.327637 
	C284.510590,482.522278 283.712677,482.793823 282.893341,482.900299 
	C261.321350,485.703827 242.414261,506.860046 242.872543,528.851746 
	C243.316650,550.163208 243.304794,571.498047 242.874069,592.810120 
	C242.357269,618.380920 264.018341,640.891174 291.579193,640.886353 
	C425.000916,640.863159 558.422607,640.885010 691.844360,640.839661 
	C696.475525,640.838074 701.129822,640.496521 705.733521,639.967163 
	C722.909607,637.992126 739.006531,623.970764 744.189636,606.248352 
	C744.795898,603.014465 745.904968,599.784119 745.927551,596.546204 
	C746.083862,574.115112 746.036499,551.682434 745.976440,529.250488 
	C745.971252,527.328552 745.398621,525.408203 745.276978,523.330444 
	C745.276978,523.330444 745.181580,523.105591 745.187866,522.304382 
	C744.814392,520.839966 744.440918,519.375488 744.039856,517.985474 
	C744.039856,517.985474 744.118835,517.978333 744.127136,517.250793 
M731.000000,302.000000 
	C731.000000,302.000000 731.007202,301.995453 730.742676,301.412842 
	C729.866455,300.828217 728.990234,300.243561 727.898987,299.284332 
	C727.686462,299.063965 727.427124,298.954285 726.755066,298.463287 
	C726.179199,298.273834 725.603271,298.084351 725.032776,297.974823 
	C725.032776,297.974823 725.098572,297.929108 724.862610,297.318024 
	C723.927979,296.843658 722.993286,296.369263 722.016602,295.961029 
	C722.016602,295.961029 722.094910,295.964508 721.906311,295.456970 
	C721.615845,295.258026 721.325439,295.059052 720.719849,294.382385 
	C720.194458,294.169067 719.669128,293.955719 718.758362,293.298584 
	C718.197205,293.156067 717.636108,293.013550 717.006470,292.918121 
	C717.006470,292.918121 717.088501,292.931335 716.610107,292.381775 
	C713.069946,291.459137 709.529724,290.536530 705.443115,289.285980 
	C704.605896,289.259857 703.768738,289.233765 702.017273,289.042480 
	C699.189575,288.947998 696.361877,288.771515 693.534180,288.770996 
	C615.441833,288.756714 537.349426,288.760712 459.257080,288.760803 
	C404.309357,288.760834 349.361633,288.738678 294.413971,288.782654 
	C286.625610,288.788879 278.764832,288.715668 271.013611,292.952881 
	C252.788986,301.950317 243.057861,316.415924 242.975418,336.927490 
	C242.890381,358.082733 242.897415,379.239105 243.006104,400.394257 
	C243.134293,425.345459 264.081451,446.369049 289.989899,446.945648 
	C290.656158,446.963776 291.322388,446.997772 291.988647,446.997772 
	C426.634583,447.001617 561.280518,447.003723 695.926453,446.995483 
	C697.254517,446.995392 698.582520,446.857330 700.735291,446.890289 
	C707.948792,444.693665 715.695496,443.512177 722.253296,440.067352 
	C732.621338,434.621063 740.113953,426.009827 743.658386,413.682404 
	C744.441345,409.807434 745.866211,405.938324 745.901550,402.056580 
	C746.108704,379.287384 746.137573,356.513428 745.853455,333.745728 
	C745.799866,329.450165 744.064758,325.175598 743.109314,320.982452 
	C743.109314,320.982452 743.177551,320.921997 743.144470,320.181641 
	C741.762207,317.453308 740.379944,314.724945 739.000000,312.000000 
	C739.000000,312.000000 739.001831,312.002441 738.881958,311.484863 
	C738.610657,311.281403 738.339294,311.077911 738.122009,310.939117 
	C738.122009,310.939117 738.173523,310.872406 738.048035,310.201447 
	C736.024841,307.812378 734.001648,305.423309 732.003357,303.002411 
	C732.003357,303.002411 731.964783,303.013794 731.815796,302.535980 
	C731.544739,302.354706 731.273743,302.173431 731.000000,302.000000 
M740.491455,114.137917 
	C732.326050,101.328300 720.457581,95.949211 705.482605,95.957108 
	C564.825562,96.031235 424.168488,96.000999 283.511414,96.004562 
	C281.845337,96.004601 280.175964,95.994255 278.513672,96.087456 
	C259.627045,97.146339 243.297394,112.863197 243.087296,130.933090 
	C242.788940,156.594223 242.764221,182.264969 243.105865,207.925156 
	C243.388657,229.164383 260.080536,249.645187 281.063202,251.788010 
	C299.137970,253.633820 317.550598,252.170929 335.879028,252.170929 
	C344.415070,177.836441 404.911438,119.480026 478.672363,112.300789 
	C514.047058,108.857735 547.382629,116.093468 577.543091,135.026459 
	C621.129639,162.387527 645.779297,202.357651 653.010132,253.160080 
	C668.267883,253.160080 682.923584,253.270325 697.577026,253.136475 
	C725.529297,252.881165 745.919373,232.323837 746.013245,204.332260 
	C746.089844,181.500732 745.983704,158.668594 746.059326,135.837067 
	C746.084167,128.346680 744.554382,121.314255 740.491455,114.137917 
M512.967224,148.368835 
	C430.015900,136.926437 375.588776,203.444641 372.504730,252.768356 
	C453.954468,252.768356 535.411926,252.768356 616.928406,252.768356 
	C608.531738,197.735580 565.388367,156.497055 512.967224,148.368835 
z"/>
<path fill="#50943F" opacity="1.000000" stroke="none" 
	d="
M743.838379,606.956482 
	C739.006531,623.970764 722.909607,637.992126 705.733521,639.967163 
	C701.129822,640.496521 696.475525,640.838074 691.844360,640.839661 
	C558.422607,640.885010 425.000916,640.863159 291.579193,640.886353 
	C264.018341,640.891174 242.357269,618.380920 242.874069,592.810120 
	C243.304794,571.498047 243.316650,550.163208 242.872543,528.851746 
	C242.414261,506.860046 261.321350,485.703827 282.893341,482.900299 
	C283.712677,482.793823 284.510590,482.522278 286.037598,482.546082 
	C288.746704,482.846710 290.736725,483.000427 292.726715,483.000793 
	C362.862427,483.013123 432.998138,483.020081 503.133850,483.008423 
	C569.937439,482.997314 636.741089,482.964661 703.544678,482.941467 
	C719.978516,483.164734 737.059021,496.529327 743.076538,514.629028 
	C743.412537,516.240417 743.765686,517.109375 744.118835,517.978333 
	C744.118835,517.978333 744.039856,517.985474 744.030762,518.352783 
	C744.408386,520.181946 744.794983,521.643738 745.181580,523.105591 
	C745.181580,523.105591 745.276978,523.330444 745.162903,523.924072 
	C745.030945,546.066284 745.105530,567.615723 744.915466,589.162842 
	C744.878418,593.362488 743.688354,597.541016 743.282654,601.753601 
	C743.118774,603.454285 743.632812,605.220215 743.838379,606.956482 
z"/>
<path fill="#50943F" opacity="1.000000" stroke="none" 
	d="
M289.072906,446.796570 
	C264.081451,446.369049 243.134293,425.345459 243.006104,400.394257 
	C242.897415,379.239105 242.890381,358.082733 242.975418,336.927490 
	C243.057861,316.415924 252.788986,301.950317 271.821045,292.957947 
	C274.767548,292.797333 276.920197,292.732239 279.043091,292.446472 
	C284.725159,291.681549 290.393738,290.110077 296.068939,290.104340 
	C429.596283,289.969727 563.123779,290.003601 696.651245,289.967041 
	C698.744751,289.966492 700.838074,289.471771 702.931519,289.207672 
	C703.768738,289.233765 704.605896,289.259857 705.766846,289.867096 
	C709.756531,291.275909 713.422485,292.103607 717.088501,292.931335 
	C717.088501,292.931335 717.006470,292.918121 717.045166,293.216553 
	C717.770508,293.590790 718.457092,293.666595 719.143738,293.742401 
	C719.669128,293.955719 720.194458,294.169067 720.972290,294.873901 
	C721.514771,295.565094 721.804810,295.764801 722.094910,295.964508 
	C722.094910,295.964508 722.016602,295.961029 722.068115,296.289917 
	C723.112549,297.055603 724.105591,297.492371 725.098572,297.929138 
	C725.098572,297.929108 725.032776,297.974823 725.187012,298.211121 
	C725.934509,298.616730 726.527710,298.786011 727.120972,298.955322 
	C727.427124,298.954285 727.686462,299.063965 728.007019,299.849762 
	C729.079102,300.941956 730.043152,301.468689 731.007202,301.995453 
	C731.007202,301.995453 731.000000,302.000000 731.100586,302.217773 
	C731.391968,302.712494 731.646484,302.905243 731.964783,303.013794 
	C731.964783,303.013794 732.003357,303.002411 732.002625,303.386597 
	C732.744385,307.280548 734.072449,310.281433 738.173523,310.872406 
	C738.173523,310.872406 738.122009,310.939117 738.171509,311.152588 
	C738.481262,311.578217 738.741577,311.790314 739.001831,312.002441 
	C739.001831,312.002441 739.000000,312.000000 738.998352,312.399231 
	C740.390320,315.506287 741.783936,318.214142 743.177551,320.921997 
	C743.177551,320.921997 743.109314,320.982452 743.072998,321.384705 
	C743.689453,327.692108 745.004700,333.611298 744.879883,339.500000 
	C744.352112,364.395599 746.871399,389.371246 743.079224,414.184296 
	C740.113953,426.009827 732.621338,434.621063 722.253296,440.067352 
	C715.695496,443.512177 707.948792,444.693665 700.006165,446.584808 
	C698.122864,446.184448 696.968750,446.006470 695.814575,446.006378 
	C561.828491,445.994476 427.842438,445.992981 293.856384,446.029510 
	C292.261841,446.029938 290.667389,446.529846 289.072906,446.796570 
z"/>
<path fill="#50943F" opacity="1.000000" stroke="none" 
	d="
M719.067627,680.993408 
	C733.704651,688.132751 742.526367,699.636108 745.106567,716.677734 
	C745.028198,735.668152 745.105286,753.757446 744.952087,771.844849 
	C744.890564,779.106750 744.295349,786.363220 744.005249,793.624695 
	C743.932922,795.436096 744.102234,797.257141 744.160400,799.073792 
	C744.099304,799.512390 744.038208,799.951050 743.683289,800.876099 
	C743.286011,801.693359 743.182617,802.024109 743.079163,802.354858 
	C740.730286,806.809875 738.381470,811.264954 735.389282,815.921875 
	C734.181213,817.107422 733.616455,818.091187 733.051758,819.074890 
	C733.051758,819.074890 733.002808,819.020325 732.791748,819.128723 
	C732.393250,819.534424 732.205688,819.831787 732.018188,820.129089 
	C731.958740,820.438599 731.798157,820.681091 731.078613,821.030762 
	C730.419189,821.488647 730.217529,821.772278 730.015869,822.055908 
	C730.015930,822.055908 730.000488,821.999634 729.791138,822.107300 
	C729.392639,822.493103 729.203430,822.771240 729.014282,823.049316 
	C729.014282,823.049316 729.002319,822.998169 728.657959,823.003967 
	C727.574768,823.719421 726.835999,824.429077 726.097229,825.138733 
	C726.097229,825.138733 725.999146,825.090332 725.674438,825.058228 
	C723.928101,826.065247 722.506470,827.104370 721.084839,828.143555 
	C721.084900,828.143555 721.013245,828.084351 720.641113,828.054626 
	C718.200073,828.499329 716.127747,828.958740 714.063110,829.451050 
	C709.143677,830.624207 704.229309,832.838806 699.310425,832.845520 
	C563.102844,833.031982 426.894989,832.998230 290.687164,832.963318 
	C288.558655,832.962769 286.403442,832.627197 284.307190,832.212769 
	C279.483002,831.258850 274.687439,830.159912 269.880280,829.119751 
	C269.880280,829.119751 269.925568,829.176758 269.897156,828.814148 
	C267.424835,827.343018 264.980957,826.234497 262.537079,825.125916 
	C250.549637,816.630554 243.610016,804.823914 243.153580,790.396057 
	C242.406952,766.795837 242.653549,743.151245 243.024506,719.533875 
	C243.213196,707.520203 249.153015,697.707336 258.066071,689.114746 
	C259.464844,688.279114 260.184174,687.566711 260.903534,686.854309 
	C260.903534,686.854309 260.956268,686.915833 261.171814,686.844116 
	C261.581207,686.483826 261.775055,686.195312 261.968872,685.906738 
	C261.968872,685.906738 261.977722,685.985352 262.318604,685.982788 
	C264.725403,684.581055 266.791382,683.181824 268.857361,681.782593 
	C268.857361,681.782593 268.904846,681.785950 269.283875,681.866333 
	C270.718353,681.221069 271.773773,680.495483 272.829224,679.769836 
	C272.829224,679.769836 272.905640,679.794312 273.317139,679.875000 
	C291.369812,675.124634 309.412231,677.101624 327.288544,677.079773 
	C448.555176,676.931580 569.822083,677.003052 691.088928,676.998291 
	C695.752380,676.998108 700.415771,676.944885 705.079224,676.916382 
	C705.079224,676.916382 705.000183,676.908813 705.222351,677.193420 
	C707.993469,677.948364 710.542480,678.418701 713.091431,678.888977 
	C713.091431,678.888977 713.002319,678.947693 713.236450,679.217712 
	C714.472900,679.627991 715.475281,679.768188 716.477600,679.908447 
	C716.477600,679.908447 716.720459,679.839600 717.006592,680.168701 
	C717.884338,680.663025 718.476013,680.828247 719.067627,680.993408 
z"/>
<path fill="#50943F" opacity="1.000000" stroke="none" 
	d="
M719.388428,874.841980 
	C719.388428,874.841980 719.714844,874.852600 719.976196,875.163086 
	C720.529724,875.630493 720.821838,875.787415 721.113953,875.944397 
	C721.113953,875.944397 721.044067,875.904663 721.067322,876.244995 
	C723.543335,878.019287 725.996094,879.453247 728.448792,880.887207 
	C732.621033,885.990479 736.793213,891.093811 740.988037,896.980713 
	C741.588806,900.656677 742.115601,903.560608 742.759216,906.438416 
	C743.440918,909.486450 744.889648,912.513123 744.873474,915.543091 
	C744.753052,938.107788 744.322571,960.670654 744.079285,983.235046 
	C744.051575,985.809875 744.580139,988.390686 744.850830,990.968750 
	C740.443604,1010.218323 723.869263,1025.768799 705.344727,1027.112793 
	C702.770508,1027.025879 701.104248,1026.993408 699.438049,1026.993408 
	C563.956848,1026.992554 428.475677,1026.993530 292.994476,1026.999146 
	C289.828827,1026.999268 286.663208,1027.055054 283.497559,1027.084961 
	C283.497559,1027.084961 283.313782,1027.261841 282.967987,1026.881348 
	C279.929169,1026.038940 277.236145,1025.576904 274.543121,1025.114868 
	C274.543121,1025.114868 274.265900,1025.164673 273.971039,1024.836060 
	C273.093597,1024.352051 272.510986,1024.196777 271.928406,1024.041382 
	C271.928406,1024.041382 271.995239,1024.009399 271.949921,1023.689941 
	C268.559967,1021.631897 265.215363,1019.893250 261.870728,1018.154602 
	C261.870728,1018.154602 261.849670,1018.182007 261.874023,1017.816040 
	C260.483795,1012.926575 256.927887,1010.731567 252.837769,1009.117432 
	C252.837769,1009.117432 252.892593,1009.055969 252.831604,1008.838013 
	C252.488495,1008.420715 252.206390,1008.221436 251.924271,1008.022156 
	C251.924271,1008.022156 251.993881,1008.011475 251.968567,1007.725586 
	C251.579727,1006.977905 251.216187,1006.516113 250.852646,1006.054321 
	C250.852646,1006.054321 250.950012,1006.053650 250.954010,1005.717834 
	C250.269440,1004.608215 249.580856,1003.834412 248.892303,1003.060608 
	C248.892303,1003.060608 248.945023,1002.995361 248.965942,1002.632324 
	C247.618820,999.199158 246.250763,996.128967 244.882690,993.058777 
	C244.882706,993.058777 244.943130,993.002502 244.964081,992.591858 
	C244.656433,988.240540 244.061615,984.301025 244.043762,980.358948 
	C243.949020,959.444885 243.976883,938.530029 244.033051,917.615662 
	C244.038742,915.494934 244.387360,913.349731 244.802185,911.260620 
	C245.757156,906.451294 246.850983,901.669434 247.888489,896.876465 
	C247.888489,896.876465 247.922821,896.964661 248.168747,896.811890 
	C248.564468,896.060547 248.714264,895.461975 248.864044,894.863342 
	C248.864044,894.863342 248.817902,894.935730 249.176147,894.903442 
	C251.348175,891.897400 253.161972,888.923706 254.975769,885.950012 
	C254.975769,885.950012 255.001236,885.998535 255.354095,885.993896 
	C259.405365,885.590149 261.640320,883.716797 261.894073,879.847534 
	C261.894073,879.847534 261.990967,879.917297 262.310913,879.941589 
	C264.374817,878.581970 266.118774,877.198059 267.862762,875.814148 
	C267.862762,875.814148 267.930817,875.866089 268.146576,875.827759 
	C268.579895,875.534058 268.797485,875.278809 269.015045,875.023499 
	C270.674438,874.317627 272.333832,873.611755 274.801086,872.932922 
	C280.821686,872.307434 286.033997,871.089111 291.247223,871.085083 
	C426.906525,870.980713 562.565918,870.993958 698.225342,871.041504 
	C702.514221,871.043030 706.802795,871.622192 711.091553,871.932007 
	C711.091553,871.932007 711.007935,871.922424 711.060303,872.256958 
	C713.304565,875.425842 715.895447,876.792480 719.388428,874.841980 
z"/>
<path fill="#FEFEFE" opacity="1.000000" stroke="none" 
	d="
M740.688721,114.453201 
	C744.554382,121.314255 746.084167,128.346680 746.059326,135.837067 
	C745.983704,158.668594 746.089844,181.500732 746.013245,204.332260 
	C745.919373,232.323837 725.529297,252.881165 697.577026,253.136475 
	C682.923584,253.270325 668.267883,253.160080 653.010132,253.160080 
	C645.779297,202.357651 621.129639,162.387527 577.543091,135.026459 
	C547.382629,116.093468 514.047058,108.857735 478.672363,112.300789 
	C404.911438,119.480026 344.415070,177.836441 335.879028,252.170929 
	C317.550598,252.170929 299.137970,253.633820 281.063202,251.788010 
	C260.080536,249.645187 243.388657,229.164383 243.105865,207.925156 
	C242.764221,182.264969 242.788940,156.594223 243.087296,130.933090 
	C243.297394,112.863197 259.627045,97.146339 278.513672,96.087456 
	C280.175964,95.994255 281.845337,96.004601 283.511414,96.004562 
	C424.168488,96.000999 564.825562,96.031235 705.482605,95.957108 
	C720.457581,95.949211 732.326050,101.328300 740.688721,114.453201 
z"/>
<path fill="#FEFEFE" opacity="1.000000" stroke="none" 
	d="
M513.397461,148.463531 
	C565.388367,156.497055 608.531738,197.735580 616.928406,252.768356 
	C535.411926,252.768356 453.954468,252.768356 372.504730,252.768356 
	C375.588776,203.444641 430.015900,136.926437 513.397461,148.463531 
z"/>
<path fill="#509240" opacity="1.000000" stroke="none" 
	d="
M248.888794,50.532330 
	C248.888794,50.532330 248.846420,50.251152 249.150818,50.011299 
	C249.621735,49.478878 249.788239,49.186314 249.954758,48.893745 
	C249.954758,48.893749 249.935928,48.974575 250.279388,48.973236 
	C253.029846,46.248089 255.436829,43.524277 257.843811,40.800465 
	C257.843811,40.800461 257.932373,40.813843 258.269257,40.879120 
	C259.363708,40.242271 260.121246,39.540150 260.878815,38.838024 
	C260.878815,38.838024 260.972198,38.855736 261.322144,38.912712 
	C264.404785,37.583427 267.137482,36.197166 269.870209,34.810913 
	C269.870209,34.810913 269.937653,34.838989 270.309540,34.911129 
	C271.453033,34.994129 272.224609,35.004990 273.231323,35.282089 
	C279.918396,35.031715 286.370087,34.068405 292.822357,34.064274 
	C428.725494,33.977268 564.628662,34.001335 700.531860,33.991665 
	C709.067627,33.991058 717.265625,35.275333 724.934021,39.351528 
	C726.755249,40.319622 729.047852,40.400738 731.123657,40.889843 
	C731.123657,40.889843 731.080444,40.971375 731.158081,41.176865 
	C731.522522,41.574524 731.809448,41.766697 732.096313,41.958870 
	C732.096313,41.958874 732.019348,41.939823 732.062744,42.261845 
	C732.805054,43.036556 733.503845,43.489243 734.202698,43.941933 
	C734.497986,44.003029 734.727844,44.159996 735.055908,44.874641 
	C735.513184,45.544983 735.806763,45.753521 736.100281,45.962067 
	C736.100281,45.962074 736.019592,45.949718 736.025146,46.298790 
	C738.036133,49.425190 740.041504,52.202518 742.046814,54.979851 
	C742.046814,54.979858 742.001953,55.002819 742.003235,55.385246 
	C743.040649,58.525478 744.076782,61.283283 745.112915,64.041092 
	C745.112915,64.041092 745.212952,64.339043 745.103271,64.851639 
	C744.000732,66.505371 743.007935,67.646507 742.015076,68.787643 
	C731.247314,63.676579 720.049011,60.855202 707.985535,60.864498 
	C564.757324,60.974888 421.529053,60.965481 278.300781,60.926258 
	C267.593018,60.923325 257.715393,63.981178 247.297256,67.927628 
	C246.025238,64.823227 245.486526,61.868389 244.947830,58.913551 
	C244.947830,58.913551 244.968338,58.987015 245.262589,58.849197 
	C245.991913,57.439629 246.426971,56.167885 246.862045,54.896137 
	C246.862045,54.896137 246.798462,54.887302 247.198151,54.850147 
	C248.028152,53.386105 248.458481,51.959217 248.888794,50.532330 
z"/>
<path fill="#5B8C4E" opacity="1.000000" stroke="none" 
	d="
M730.971802,40.578949 
	C729.047852,40.400738 726.755249,40.319622 724.934021,39.351528 
	C717.265625,35.275333 709.067627,33.991058 700.531860,33.991665 
	C564.628662,34.001335 428.725494,33.977268 292.822357,34.064274 
	C286.370087,34.068405 279.918396,35.031715 273.232422,35.040993 
	C272.998444,34.533653 272.993866,34.051979 272.993866,34.051979 
	C274.909302,33.686733 276.824615,33.002361 278.740204,33.001717 
	C422.353058,32.953140 565.965942,32.958065 709.578857,32.961021 
	C717.493835,32.961185 724.429688,35.826237 730.971802,40.578949 
z"/>
<path fill="#5B8A52" opacity="1.000000" stroke="none" 
	d="
M270.059570,829.429871 
	C274.687439,830.159912 279.483002,831.258850 284.307190,832.212769 
	C286.403442,832.627197 288.558655,832.962769 290.687164,832.963318 
	C426.894989,832.998230 563.102844,833.031982 699.310425,832.845520 
	C704.229309,832.838806 709.143677,830.624207 714.063110,829.451050 
	C716.127747,828.958740 718.200073,828.499329 720.687500,828.053040 
	C715.230957,830.055237 709.480530,832.740356 703.444824,833.799683 
	C697.618164,834.822327 691.497192,834.239380 685.505554,834.239868 
	C554.979309,834.250549 424.453094,834.239319 293.926880,834.252930 
	C285.728394,834.253784 277.631866,833.887451 270.059570,829.429871 
z"/>
<path fill="#5C8852" opacity="1.000000" stroke="none" 
	d="
M710.826538,871.642334 
	C706.802795,871.622192 702.514221,871.043030 698.225342,871.041504 
	C562.565918,870.993958 426.906525,870.980713 291.247223,871.085083 
	C286.033997,871.089111 280.821686,872.307434 275.145325,872.924316 
	C281.320038,871.840576 287.956970,869.888794 294.596954,869.878479 
	C413.831482,869.693176 533.066406,869.733826 652.301208,869.752075 
	C668.952026,869.754639 685.603577,869.832703 702.252930,870.030334 
	C705.027283,870.063293 707.792236,870.891724 710.826538,871.642334 
z"/>
<path fill="#598B4C" opacity="1.000000" stroke="none" 
	d="
M702.474365,289.125061 
	C700.838074,289.471771 698.744751,289.966492 696.651245,289.967041 
	C563.123779,290.003601 429.596283,289.969727 296.068939,290.104340 
	C290.393738,290.110077 284.725159,291.681549 279.043091,292.446472 
	C276.920197,292.732239 274.767548,292.797333 272.167847,292.931396 
	C278.764832,288.715668 286.625610,288.788879 294.413971,288.782654 
	C349.361633,288.738678 404.309357,288.760834 459.257080,288.760803 
	C537.349426,288.760712 615.441833,288.756714 693.534180,288.770996 
	C696.361877,288.771515 699.189575,288.947998 702.474365,289.125061 
z"/>
<path fill="#5D8A52" opacity="1.000000" stroke="none" 
	d="
M704.797607,676.596558 
	C700.415771,676.944885 695.752380,676.998108 691.088928,676.998291 
	C569.822083,677.003052 448.555176,676.931580 327.288544,677.079773 
	C309.412231,677.101624 291.369812,675.124634 273.307648,679.913940 
	C278.606842,678.577759 284.324585,676.166931 290.047577,676.154419 
	C394.212341,675.926147 498.377716,675.986206 602.542969,675.984985 
	C634.375854,675.984619 666.208740,675.978760 698.041626,675.996826 
	C700.199829,675.998047 702.357910,676.179199 704.797607,676.596558 
z"/>
<path fill="#618956" opacity="1.000000" stroke="none" 
	d="
M283.855438,1027.374023 
	C286.663208,1027.055054 289.828827,1026.999268 292.994476,1026.999146 
	C428.475677,1026.993530 563.956848,1026.992554 699.438049,1026.993408 
	C701.104248,1026.993408 702.770508,1027.025879 704.950317,1027.069824 
	C703.374878,1027.399170 701.285950,1027.966431 699.196899,1027.967041 
	C562.521240,1028.008301 425.845642,1028.004639 289.170013,1027.988647 
	C287.517792,1027.988525 285.865540,1027.776367 283.855438,1027.374023 
z"/>
<path fill="#6A8862" opacity="1.000000" stroke="none" 
	d="
M703.181152,482.655640 
	C636.741089,482.964661 569.937439,482.997314 503.133850,483.008423 
	C432.998138,483.020081 362.862427,483.013123 292.726715,483.000793 
	C290.736725,483.000427 288.746704,482.846710 286.423645,482.538879 
	C288.748840,482.211639 291.407135,482.021545 294.065430,482.021179 
	C427.827972,482.003326 561.590515,481.999573 695.353088,482.013672 
	C697.841309,482.013916 700.329468,482.245941 703.181152,482.655640 
z"/>
<path fill="#67985D" opacity="1.000000" stroke="none" 
	d="
M289.531403,446.871094 
	C290.667389,446.529846 292.261841,446.029938 293.856384,446.029510 
	C427.842438,445.992981 561.828491,445.994476 695.814575,446.006378 
	C696.968750,446.006470 698.122864,446.184448 699.593811,446.531494 
	C698.582520,446.857330 697.254517,446.995392 695.926453,446.995483 
	C561.280518,447.003723 426.634583,447.001617 291.988647,446.997772 
	C291.322388,446.997772 290.656158,446.963776 289.531403,446.871094 
z"/>
<path fill="#5C8652" opacity="1.000000" stroke="none" 
	d="
M744.962524,990.564392 
	C744.580139,988.390686 744.051575,985.809875 744.079285,983.235046 
	C744.322571,960.670654 744.753052,938.107788 744.873474,915.543091 
	C744.889648,912.513123 743.440918,909.486450 742.759216,906.438416 
	C742.115601,903.560608 741.588806,900.656677 741.022644,897.330078 
	C742.695740,902.883484 745.641052,908.839172 745.790405,914.864075 
	C746.363464,937.995544 746.063354,961.149292 746.008240,984.294495 
	C746.003601,986.250427 745.399719,988.204895 744.962524,990.564392 
z"/>
<path fill="#5C8A50" opacity="1.000000" stroke="none" 
	d="
M247.580322,897.060669 
	C246.850983,901.669434 245.757156,906.451294 244.802185,911.260620 
	C244.387360,913.349731 244.038742,915.494934 244.033051,917.615662 
	C243.976883,938.530029 243.949020,959.444885 244.043762,980.358948 
	C244.061615,984.301025 244.656433,988.240540 244.962952,992.633118 
	C244.281265,989.745728 243.075531,986.410583 243.049911,983.066406 
	C242.873138,960.004761 242.668121,936.935791 243.131378,913.882324 
	C243.243332,908.311035 245.825775,902.789429 247.580322,897.060669 
z"/>
<path fill="#5B8751" opacity="1.000000" stroke="none" 
	d="
M743.368774,413.933350 
	C746.871399,389.371246 744.352112,364.395599 744.879883,339.500000 
	C745.004700,333.611298 743.689453,327.692108 743.071106,321.339142 
	C744.064758,325.175598 745.799866,329.450165 745.853455,333.745728 
	C746.137573,356.513428 746.108704,379.287384 745.901550,402.056580 
	C745.866211,405.938324 744.441345,409.807434 743.368774,413.933350 
z"/>
<path fill="#5C8853" opacity="1.000000" stroke="none" 
	d="
M744.420288,798.786255 
	C744.102234,797.257141 743.932922,795.436096 744.005249,793.624695 
	C744.295349,786.363220 744.890564,779.106750 744.952087,771.844849 
	C745.105286,753.757446 745.028198,735.668152 745.073547,717.068665 
	C745.411377,718.316101 745.981934,720.073669 745.987000,721.832886 
	C746.052307,744.619263 746.083496,767.406128 745.982117,790.192261 
	C745.969788,792.962952 745.134216,795.729919 744.420288,798.786255 
z"/>
<path fill="#5B8751" opacity="1.000000" stroke="none" 
	d="
M744.014038,606.602417 
	C743.632812,605.220215 743.118774,603.454285 743.282654,601.753601 
	C743.688354,597.541016 744.878418,593.362488 744.915466,589.162842 
	C745.105530,567.615723 745.030945,546.066284 745.069214,524.002380 
	C745.398621,525.408203 745.971252,527.328552 745.976440,529.250488 
	C746.036499,551.682434 746.083862,574.115112 745.927551,596.546204 
	C745.904968,599.784119 744.795898,603.014465 744.014038,606.602417 
z"/>
<path fill="#5C8A50" opacity="1.000000" stroke="none" 
	d="
M252.917557,1009.447021 
	C256.927887,1010.731567 260.483795,1012.926575 261.858398,1017.823364 
	C258.878021,1015.390015 255.937683,1012.583252 252.917557,1009.447021 
z"/>
<path fill="#678A5B" opacity="1.000000" stroke="none" 
	d="
M244.642761,59.154484 
	C245.486526,61.868389 246.025238,64.823227 246.936707,67.967728 
	C246.148483,68.989426 244.987473,69.821449 242.367462,71.699059 
	C243.170792,66.682358 243.754227,63.038887 244.642761,59.154484 
z"/>
<path fill="#5F8754" opacity="1.000000" stroke="none" 
	d="
M257.509521,40.863689 
	C255.436829,43.524277 253.029846,46.248089 250.251526,48.942505 
	C252.311859,46.251041 254.743530,43.588974 257.509521,40.863689 
z"/>
<path fill="#5C8A50" opacity="1.000000" stroke="none" 
	d="
M261.998260,1018.470337 
	C265.215363,1019.893250 268.559967,1021.631897 271.934509,1023.723755 
	C268.684875,1022.313354 265.405334,1020.549744 261.998260,1018.470337 
z"/>
<path fill="#598B4C" opacity="1.000000" stroke="none" 
	d="
M716.849304,292.656555 
	C713.422485,292.103607 709.756531,291.275909 706.040039,290.031067 
	C709.529724,290.536530 713.069946,291.459137 716.849304,292.656555 
z"/>
<path fill="#598B4C" opacity="1.000000" stroke="none" 
	d="
M738.110779,310.536926 
	C734.072449,310.281433 732.744385,307.280548 731.990173,303.402496 
	C734.001648,305.423309 736.024841,307.812378 738.110779,310.536926 
z"/>
<path fill="#5B8C4E" opacity="1.000000" stroke="none" 
	d="
M742.012573,54.620712 
	C740.041504,52.202518 738.036133,49.425190 736.054138,46.270050 
	C738.044434,48.682014 740.011414,51.471798 742.012573,54.620712 
z"/>
<path fill="#5B8651" opacity="1.000000" stroke="none" 
	d="
M261.565063,879.925049 
	C261.640320,883.716797 259.405365,885.590149 255.328979,885.983154 
	C257.046051,883.985474 259.141052,881.994019 261.565063,879.925049 
z"/>
<path fill="#5C8852" opacity="1.000000" stroke="none" 
	d="
M719.120728,874.579956 
	C715.895447,876.792480 713.304565,875.425842 711.092712,872.230103 
	C713.666138,872.685120 716.259583,873.501587 719.120728,874.579956 
z"/>
<path fill="#5B8651" opacity="1.000000" stroke="none" 
	d="
M254.679977,886.110962 
	C253.161972,888.923706 251.348175,891.897400 249.168686,894.861145 
	C250.663391,891.991455 252.523788,889.131714 254.679977,886.110962 
z"/>
<path fill="#5F8754" opacity="1.000000" stroke="none" 
	d="
M269.494080,34.828156 
	C267.137482,36.197166 264.404785,37.583427 261.276886,38.927250 
	C263.627106,37.538345 266.372528,36.191872 269.494080,34.828156 
z"/>
<path fill="#598B4C" opacity="1.000000" stroke="none" 
	d="
M743.161011,320.551819 
	C741.783936,318.214142 740.390320,315.506287 738.997192,312.397522 
	C740.379944,314.724945 741.762207,317.453308 743.161011,320.551819 
z"/>
<path fill="#5C8A50" opacity="1.000000" stroke="none" 
	d="
M244.892700,993.439331 
	C246.250763,996.128967 247.618820,999.199158 248.962982,1002.674194 
	C247.593643,999.992676 246.248184,996.906311 244.892700,993.439331 
z"/>
<path fill="#5C8852" opacity="1.000000" stroke="none" 
	d="
M728.226440,880.607971 
	C725.996094,879.453247 723.543335,878.019287 721.095703,876.216614 
	C723.401978,877.341492 725.703064,878.835144 728.226440,880.607971 
z"/>
<path fill="#5B8C4E" opacity="1.000000" stroke="none" 
	d="
M745.132202,63.640408 
	C744.076782,61.283283 743.040649,58.525478 742.013550,55.362263 
	C743.065491,57.717808 744.108521,60.478767 745.132202,63.640408 
z"/>
<path fill="#5B8A52" opacity="1.000000" stroke="none" 
	d="
M262.747803,825.423523 
	C264.980957,826.234497 267.424835,827.343018 269.862732,828.825928 
	C267.557312,828.040649 265.257935,826.880859 262.747803,825.423523 
z"/>
<path fill="#5B8C4E" opacity="1.000000" stroke="none" 
	d="
M742.325684,68.955505 
	C743.007935,67.646507 744.000732,66.505371 745.055908,65.001457 
	C745.525269,66.443626 745.932434,68.248573 746.555176,71.009460 
	C744.676392,70.105247 743.656311,69.614304 742.325684,68.955505 
z"/>
<path fill="#5D8A52" opacity="1.000000" stroke="none" 
	d="
M268.503418,681.756287 
	C266.791382,683.181824 264.725403,684.581055 262.285645,685.960938 
	C263.991028,684.537720 266.070251,683.133850 268.503418,681.756287 
z"/>
<path fill="#5B8651" opacity="1.000000" stroke="none" 
	d="
M267.525116,875.865112 
	C266.118774,877.198059 264.374817,878.581970 262.252136,879.931274 
	C263.644775,878.569824 265.416138,877.242981 267.525116,875.865112 
z"/>
<path fill="#618956" opacity="1.000000" stroke="none" 
	d="
M274.827484,1025.404297 
	C277.236145,1025.576904 279.929169,1026.038940 282.856201,1026.820068 
	C280.430786,1026.657227 277.771301,1026.175415 274.827484,1025.404297 
z"/>
<path fill="#5D8A52" opacity="1.000000" stroke="none" 
	d="
M712.881470,678.573853 
	C710.542480,678.418701 707.993469,677.948364 705.242004,677.158936 
	C707.583496,677.312805 710.127563,677.785767 712.881470,678.573853 
z"/>
<path fill="#5B8A52" opacity="1.000000" stroke="none" 
	d="
M721.423706,828.101318 
	C722.506470,827.104370 723.928101,826.065247 725.729004,825.061035 
	C724.659729,826.083740 723.211121,827.071472 721.423706,828.101318 
z"/>
<path fill="#678A5B" opacity="1.000000" stroke="none" 
	d="
M248.599243,50.751854 
	C248.458481,51.959217 248.028152,53.386105 247.193085,54.818451 
	C247.295441,53.539734 247.802551,52.255558 248.599243,50.751854 
z"/>
<path fill="#5D8A52" opacity="1.000000" stroke="none" 
	d="
M272.492188,679.788086 
	C271.773773,680.495483 270.718353,681.221069 269.269806,681.885559 
	C269.969543,681.151672 271.062347,680.479004 272.492188,679.788086 
z"/>
<path fill="#678A5B" opacity="1.000000" stroke="none" 
	d="
M246.525757,54.982391 
	C246.426971,56.167885 245.991913,57.439629 245.224640,58.845383 
	C245.324783,57.675808 245.757126,56.372227 246.525757,54.982391 
z"/>
<path fill="#5C8A50" opacity="1.000000" stroke="none" 
	d="
M248.924835,1003.379639 
	C249.580856,1003.834412 250.269440,1004.608215 250.920654,1005.753296 
	C250.241333,1005.315979 249.599365,1004.507324 248.924835,1003.379639 
z"/>
<path fill="#5F8754" opacity="1.000000" stroke="none" 
	d="
M260.567139,38.891266 
	C260.121246,39.540150 259.363708,40.242271 258.230957,40.902328 
	C258.655670,40.221676 259.455597,39.583092 260.567139,38.891266 
z"/>
<path fill="#598B4C" opacity="1.000000" stroke="none" 
	d="
M724.980591,297.623596 
	C724.105591,297.492371 723.112549,297.055603 722.089111,296.256866 
	C722.993286,296.369263 723.927979,296.843658 724.980591,297.623596 
z"/>
<path fill="#5B8A52" opacity="1.000000" stroke="none" 
	d="
M726.405273,825.074341 
	C726.835999,824.429077 727.574768,823.719421 728.680054,823.018311 
	C728.268799,823.687927 727.491028,824.348938 726.405273,825.074341 
z"/>
<path fill="#5B8A52" opacity="1.000000" stroke="none" 
	d="
M733.355225,818.947876 
	C733.616455,818.091187 734.181213,817.107422 735.147583,816.133423 
	C734.919067,817.035706 734.288940,817.928284 733.355225,818.947876 
z"/>
<path fill="#598B4C" opacity="1.000000" stroke="none" 
	d="
M730.874939,301.704163 
	C730.043152,301.468689 729.079102,300.941956 728.114502,300.037048 
	C728.990234,300.243561 729.866455,300.828217 730.874939,301.704163 
z"/>
<path fill="#5D8A52" opacity="1.000000" stroke="none" 
	d="
M260.601135,686.924438 
	C260.184174,687.566711 259.464844,688.279114 258.384888,689.002075 
	C258.782410,688.339905 259.540558,687.667236 260.601135,686.924438 
z"/>
<path fill="#5B8751" opacity="1.000000" stroke="none" 
	d="
M745.184692,522.704956 
	C744.794983,521.643738 744.408386,520.181946 744.044556,518.315552 
	C744.440918,519.375488 744.814392,520.839966 745.184692,522.704956 
z"/>
<path fill="#598B4C" opacity="1.000000" stroke="none" 
	d="
M718.951050,293.520508 
	C718.457092,293.666595 717.770508,293.590790 717.079407,293.192993 
	C717.636108,293.013550 718.197205,293.156067 718.951050,293.520508 
z"/>
<path fill="#5B8C4E" opacity="1.000000" stroke="none" 
	d="
M734.114502,43.626766 
	C733.503845,43.489243 732.805054,43.036556 732.090454,42.233482 
	C732.725281,42.359264 733.375732,42.835434 734.114502,43.626766 
z"/>
<path fill="#5F8754" opacity="1.000000" stroke="none" 
	d="
M272.646881,33.999641 
	C272.993866,34.051979 272.998444,34.533653 272.997314,34.774750 
	C272.224609,35.004990 271.453033,34.994129 270.296387,34.945198 
	C270.707520,34.587189 271.503693,34.267246 272.646881,33.999641 
z"/>
<path fill="#5D8A52" opacity="1.000000" stroke="none" 
	d="
M716.218872,679.632263 
	C715.475281,679.768188 714.472900,679.627991 713.258667,679.169189 
	C714.017822,679.019104 714.989014,679.187622 716.218872,679.632263 
z"/>
<path fill="#5B8751" opacity="1.000000" stroke="none" 
	d="
M744.122986,517.614563 
	C743.765686,517.109375 743.412537,516.240417 743.097900,514.984131 
	C743.466675,515.481445 743.796936,516.366150 744.122986,517.614563 
z"/>
<path fill="#598B4C" opacity="1.000000" stroke="none" 
	d="
M726.937988,298.709290 
	C726.527710,298.786011 725.934509,298.616730 725.184326,298.171143 
	C725.603271,298.084351 726.179199,298.273834 726.937988,298.709290 
z"/>
<path fill="#5C8A50" opacity="1.000000" stroke="none" 
	d="
M272.113312,1024.284912 
	C272.510986,1024.196777 273.093597,1024.352051 273.850403,1024.763428 
	C273.449158,1024.855591 272.873688,1024.692017 272.113312,1024.284912 
z"/>
<path fill="#5D8A52" opacity="1.000000" stroke="none" 
	d="
M718.882507,680.740479 
	C718.476013,680.828247 717.884338,680.663025 717.110718,680.240112 
	C717.518250,680.150696 718.107788,680.319092 718.882507,680.740479 
z"/>
<path fill="#5B8651" opacity="1.000000" stroke="none" 
	d="
M248.584229,895.004333 
	C248.714264,895.461975 248.564468,896.060547 248.123230,896.798950 
	C247.989349,896.340942 248.146881,895.743103 248.584229,895.004333 
z"/>
<path fill="#5C8A50" opacity="1.000000" stroke="none" 
	d="
M250.864471,1006.361328 
	C251.216187,1006.516113 251.579727,1006.977905 251.950867,1007.756042 
	C251.597748,1007.604370 251.237015,1007.136292 250.864471,1006.361328 
z"/>
<path fill="#5C8A50" opacity="1.000000" stroke="none" 
	d="
M251.994797,1008.284424 
	C252.206390,1008.221436 252.488495,1008.420715 252.854980,1008.871887 
	C252.648010,1008.931396 252.356659,1008.739014 251.994797,1008.284424 
z"/>
<path fill="#598B4C" opacity="1.000000" stroke="none" 
	d="
M738.941895,311.743652 
	C738.741577,311.790314 738.481262,311.578217 738.144531,311.120270 
	C738.339294,311.077911 738.610657,311.281403 738.941895,311.743652 
z"/>
<path fill="#598B4C" opacity="1.000000" stroke="none" 
	d="
M722.000610,295.710754 
	C721.804810,295.764801 721.514771,295.565094 721.129822,295.112732 
	C721.325439,295.059052 721.615845,295.258026 722.000610,295.710754 
z"/>
<path fill="#598B4C" opacity="1.000000" stroke="none" 
	d="
M731.890259,302.774902 
	C731.646484,302.905243 731.391968,302.712494 731.101929,302.213867 
	C731.273743,302.173431 731.544739,302.354706 731.890259,302.774902 
z"/>
<path fill="#5B8A52" opacity="1.000000" stroke="none" 
	d="
M732.261353,820.017212 
	C732.205688,819.831787 732.393250,819.534424 732.828308,819.131714 
	C732.885437,819.319336 732.694946,819.612366 732.261353,820.017212 
z"/>
<path fill="#5B8C4E" opacity="1.000000" stroke="none" 
	d="
M736.010986,45.701759 
	C735.806763,45.753521 735.513184,45.544983 735.129639,45.074749 
	C735.333618,45.022522 735.627625,45.231995 736.010986,45.701759 
z"/>
<path fill="#5B8C4E" opacity="1.000000" stroke="none" 
	d="
M732.017578,41.699463 
	C731.809448,41.766697 731.522522,41.574524 731.147217,41.132038 
	C731.352112,41.067837 731.645447,41.253948 732.017578,41.699463 
z"/>
<path fill="#5C8852" opacity="1.000000" stroke="none" 
	d="
M721.025757,875.692627 
	C720.821838,875.787415 720.529724,875.630493 720.111938,875.253845 
	C720.303345,875.169739 720.620422,875.305359 721.025757,875.692627 
z"/>
<path fill="#5B8651" opacity="1.000000" stroke="none" 
	d="
M268.743073,875.050720 
	C268.797485,875.278809 268.579895,875.534058 268.113037,875.854248 
	C268.066193,875.638794 268.268646,875.358398 268.743073,875.050720 
z"/>
<path fill="#5D8A52" opacity="1.000000" stroke="none" 
	d="
M261.703552,685.982422 
	C261.775055,686.195312 261.581207,686.483826 261.135162,686.861328 
	C261.068054,686.652893 261.253143,686.355469 261.703552,685.982422 
z"/>
<path fill="#5F8754" opacity="1.000000" stroke="none" 
	d="
M249.702576,48.986839 
	C249.788239,49.186314 249.621735,49.478878 249.228241,49.892052 
	C249.150970,49.701748 249.300674,49.390839 249.702576,48.986839 
z"/>
<path fill="#5C8853" opacity="1.000000" stroke="none" 
	d="
M743.293457,802.190796 
	C743.182617,802.024109 743.286011,801.693359 743.591492,801.195801 
	C743.698242,801.361511 743.602966,801.694092 743.293457,802.190796 
z"/>
<path fill="#5B8A52" opacity="1.000000" stroke="none" 
	d="
M729.254395,822.954102 
	C729.203430,822.771240 729.392639,822.493103 729.819214,822.115601 
	C729.869202,822.296997 729.681885,822.577942 729.254395,822.954102 
z"/>
<path fill="#5B8A52" opacity="1.000000" stroke="none" 
	d="
M730.264526,821.962036 
	C730.217529,821.772278 730.419189,821.488647 730.870300,821.109985 
	C730.917603,821.299377 730.715393,821.583801 730.264526,821.962036 
z"/>
</svg>