<svg version="1.1" id="Layer_1" xmlns="http://www.w3.org/2000/svg" xmlns:xlink="http://www.w3.org/1999/xlink" x="0px" y="0px"
	 width="100%" viewBox="0 0 1034 1052" enable-background="new 0 0 1034 1052" xml:space="preserve">
<path fill="#FFFFFF" opacity="1.000000" stroke="none" 
	d="
M574.000000,1053.000000 
	C382.689484,1053.000000 191.878998,1053.000000 1.034243,1053.000000 
	C1.034243,702.398132 1.034243,351.796234 1.034243,1.097167 
	C345.560638,1.097167 690.121338,1.097167 1034.841064,1.097167 
	C1034.841064,351.666595 1034.841064,702.333313 1034.841064,1053.000000 
	C881.462646,1053.000000 727.981323,1053.000000 574.000000,1053.000000 
M474.315765,66.461845 
	C472.893372,66.717682 471.470978,66.973526 469.266205,67.177727 
	C468.462311,67.384132 467.665131,67.622543 466.853577,67.792297 
	C438.100433,73.806870 417.393799,90.254913 404.060425,116.243347 
	C397.864868,128.319229 395.865082,141.404465 393.988861,154.821457 
	C348.847351,154.873657 303.693237,154.277710 258.567871,155.157684 
	C212.050903,156.064774 174.080048,194.019379 173.178970,240.616791 
	C172.287064,286.740295 172.489563,332.899170 173.055466,379.032166 
	C173.516342,416.601501 187.935532,448.499268 215.218796,474.506042 
	C216.344254,475.578796 217.077011,477.632599 217.079666,479.230896 
	C217.145996,519.207642 217.089386,559.184692 216.132370,599.381287 
	C202.807678,599.396240 189.482391,599.341248 176.158493,599.452576 
	C168.310226,599.518188 160.570114,600.260498 153.429642,604.055664 
	C136.090286,613.271606 128.335785,627.904480 128.382538,647.269531 
	C128.485077,689.742920 128.439651,732.216797 128.406952,774.690430 
	C128.397369,787.134705 129.850418,799.467834 135.020615,810.753418 
	C151.014725,845.665527 178.043945,864.752075 217.135330,866.871643 
	C217.380280,869.356812 217.662567,871.838867 217.864197,874.327576 
	C219.348251,892.645447 226.062973,908.972534 237.877213,922.856323 
	C256.300171,944.506653 280.000183,955.049377 308.546021,955.034912 
	C455.125854,954.960693 601.705750,955.001587 748.285645,954.996216 
	C750.616882,954.996155 752.949646,954.959106 755.279175,954.872375 
	C790.962402,953.545715 824.292419,928.521484 834.794739,894.379578 
	C837.599243,885.262146 838.386292,875.524048 841.003235,866.087769 
	C877.854248,864.555176 904.138550,846.724365 920.483215,814.039001 
	C926.683472,801.639954 928.777161,788.116882 928.812927,774.354980 
	C928.917297,734.228210 928.882446,694.100830 928.813965,653.973877 
	C928.804626,648.496765 928.506531,642.999634 927.974243,637.547729 
	C926.237915,619.765076 909.276428,601.539001 891.545471,600.311584 
	C874.485474,599.130615 857.292969,599.864868 839.933350,598.874756 
	C839.894226,558.893311 839.824829,518.911804 839.921387,478.930634 
	C839.925415,477.248077 841.089661,475.169983 842.359619,473.947571 
	C868.272522,449.005646 882.424316,418.561371 883.800476,382.703827 
	C884.700745,359.246887 884.157349,335.732208 884.152222,312.243408 
	C884.146790,287.588715 885.007385,262.880737 883.691406,238.292282 
	C881.889709,204.629272 864.282349,180.299423 834.971191,164.375458 
	C821.683777,157.156784 807.152771,154.771149 792.090454,154.793839 
	C748.778015,154.859100 705.465210,154.742599 662.091492,153.850433 
	C660.774231,126.689026 650.373047,103.874756 629.375183,86.298225 
	C617.280701,76.174332 603.489990,69.609756 587.155762,67.200668 
	C585.439636,67.025650 583.723450,66.850632 581.182556,66.346329 
	C579.109680,66.304306 577.036743,66.262276 574.046448,66.038429 
	C562.274231,66.018623 550.501953,65.956200 538.729858,65.988640 
	C519.502502,66.041626 500.275269,66.156441 480.176910,66.127274 
	C478.449646,66.317795 476.722351,66.508316 474.315765,66.461845 
z"/>
<path fill="#010101" opacity="1.000000" stroke="none" 
	d="
M840.099609,866.070923 
	C838.386292,875.524048 837.599243,885.262146 834.794739,894.379578 
	C824.292419,928.521484 790.962402,953.545715 755.279175,954.872375 
	C752.949646,954.959106 750.616882,954.996155 748.285645,954.996216 
	C601.705750,955.001587 455.125854,954.960693 308.546021,955.034912 
	C280.000183,955.049377 256.300171,944.506653 237.877213,922.856323 
	C226.062973,908.972534 219.348251,892.645447 217.864197,874.327576 
	C217.662567,871.838867 217.380280,869.356812 217.094299,866.000427 
	C217.053680,776.473328 217.054092,687.817505 217.054504,599.161621 
	C217.089386,559.184692 217.145996,519.207642 217.079666,479.230896 
	C217.077011,477.632599 216.344254,475.578796 215.218796,474.506042 
	C187.935532,448.499268 173.516342,416.601501 173.055466,379.032166 
	C172.489563,332.899170 172.287064,286.740295 173.178970,240.616791 
	C174.080048,194.019379 212.050903,156.064774 258.567871,155.157684 
	C303.693237,154.277710 348.847351,154.873657 394.912018,154.857635 
	C482.112274,154.890457 568.389404,154.888626 654.666504,154.875900 
	C657.161865,154.875534 659.657227,154.759598 662.152588,154.697525 
	C705.465210,154.742599 748.778015,154.859100 792.090454,154.793839 
	C807.152771,154.771149 821.683777,157.156784 834.971191,164.375458 
	C864.282349,180.299423 881.889709,204.629272 883.691406,238.292282 
	C885.007385,262.880737 884.146790,287.588715 884.152222,312.243408 
	C884.157349,335.732208 884.700745,359.246887 883.800476,382.703827 
	C882.424316,418.561371 868.272522,449.005646 842.359619,473.947571 
	C841.089661,475.169983 839.925415,477.248077 839.921387,478.930634 
	C839.824829,518.911804 839.894226,558.893311 839.947937,599.794312 
	C839.937561,688.337585 839.912048,775.961243 839.896423,863.584900 
	C839.896240,864.413574 840.028870,865.242249 840.099609,866.070923 
M574.034180,421.519836 
	C631.518066,421.511902 689.002014,421.448273 746.485779,421.542450 
	C758.188721,421.561615 769.007263,418.813477 778.271240,411.721741 
	C790.182007,402.603821 795.285095,390.146576 795.225342,375.153687 
	C795.055969,332.666016 795.169128,290.177246 795.152283,247.688919 
	C795.151794,246.433960 794.942383,245.179077 794.841858,244.052185 
	C617.029175,244.052185 439.634705,244.052185 261.836121,244.052185 
	C261.836121,246.044205 261.836182,247.839035 261.836151,249.633850 
	C261.835449,291.122467 261.829865,332.611053 261.845398,374.099670 
	C261.846405,376.763306 261.794312,379.454712 262.133972,382.085846 
	C264.071838,397.095734 271.370300,408.352142 284.978638,415.586090 
	C293.354492,420.038544 302.125275,421.536285 311.424805,421.528839 
	C368.908905,421.482849 426.393127,421.515259 483.965363,422.517181 
	C483.933807,451.840820 483.902222,481.164459 483.032196,510.486786 
	C424.129639,510.486786 365.227051,510.486786 306.465240,510.486786 
	C306.465240,629.453552 306.465240,747.692261 306.465240,865.903748 
	C454.660156,865.903748 602.553345,865.903748 750.636108,865.903748 
	C750.636108,747.409058 750.636108,629.185547 750.636108,510.470276 
	C691.326416,510.470276 632.213989,510.470276 573.028931,509.473511 
	C573.057007,480.147766 573.085144,450.822021 574.034180,421.519836 
z"/>
<path fill="#3F6392" opacity="1.000000" stroke="none" 
	d="
M216.593445,599.271484 
	C217.054092,687.817505 217.053680,776.473328 216.979553,865.596069 
	C178.043945,864.752075 151.014725,845.665527 135.020615,810.753418 
	C129.850418,799.467834 128.397369,787.134705 128.406952,774.690430 
	C128.439651,732.216797 128.485077,689.742920 128.382538,647.269531 
	C128.335785,627.904480 136.090286,613.271606 153.429642,604.055664 
	C160.570114,600.260498 168.310226,599.518188 176.158493,599.452576 
	C189.482391,599.341248 202.807678,599.396240 216.593445,599.271484 
z"/>
<path fill="#3F6292" opacity="1.000000" stroke="none" 
	d="
M840.551392,866.079346 
	C840.028870,865.242249 839.896240,864.413574 839.896423,863.584900 
	C839.912048,775.961243 839.937561,688.337585 840.060608,600.235718 
	C857.292969,599.864868 874.485474,599.130615 891.545471,600.311584 
	C909.276428,601.539001 926.237915,619.765076 927.974243,637.547729 
	C928.506531,642.999634 928.804626,648.496765 928.813965,653.973877 
	C928.882446,694.100830 928.917297,734.228210 928.812927,774.354980 
	C928.777161,788.116882 926.683472,801.639954 920.483215,814.039001 
	C904.138550,846.724365 877.854248,864.555176 840.551392,866.079346 
z"/>
<path fill="#3F6291" opacity="1.000000" stroke="none" 
	d="
M662.122070,154.273987 
	C659.657227,154.759598 657.161865,154.875534 654.666504,154.875900 
	C568.389404,154.888626 482.112274,154.890457 395.373077,154.813156 
	C395.865082,141.404465 397.864868,128.319229 404.060425,116.243347 
	C417.393799,90.254913 438.100433,73.806870 466.853577,67.792297 
	C467.665131,67.622543 468.462311,67.384132 469.900299,67.422211 
	C472.021301,67.344070 473.508179,67.021454 474.995087,66.698837 
	C476.722351,66.508316 478.449646,66.317795 480.940674,66.429939 
	C482.359955,66.822342 483.015442,66.990265 483.671021,66.990578 
	C512.837036,67.004219 542.002991,67.012901 571.168945,66.970558 
	C572.434265,66.968719 573.698914,66.481415 574.963867,66.220253 
	C577.036743,66.262276 579.109680,66.304306 581.764526,66.833145 
	C584.116211,67.473999 585.885986,67.628052 587.655701,67.782097 
	C603.489990,69.609756 617.280701,76.174332 629.375183,86.298225 
	C650.373047,103.874756 660.774231,126.689026 662.122070,154.273987 
z"/>
<path fill="#4C647F" opacity="1.000000" stroke="none" 
	d="
M574.505127,66.129341 
	C573.698914,66.481415 572.434265,66.968719 571.168945,66.970558 
	C542.002991,67.012901 512.837036,67.004219 483.671021,66.990578 
	C483.015442,66.990265 482.359955,66.822342 481.376190,66.488884 
	C500.275269,66.156441 519.502502,66.041626 538.729858,65.988640 
	C550.501953,65.956200 562.274231,66.018623 574.505127,66.129341 
z"/>
<path fill="#4C647F" opacity="1.000000" stroke="none" 
	d="
M587.405762,67.491379 
	C585.885986,67.628052 584.116211,67.473999 582.176880,66.997787 
	C583.723450,66.850632 585.439636,67.025650 587.405762,67.491379 
z"/>
<path fill="#4C647F" opacity="1.000000" stroke="none" 
	d="
M474.655426,66.580338 
	C473.508179,67.021454 472.021301,67.344070 470.291504,67.448029 
	C471.470978,66.973526 472.893372,66.717682 474.655426,66.580338 
z"/>
<path fill="#FEFEFE" opacity="1.000000" stroke="none" 
	d="
M573.101501,510.470276 
	C632.213989,510.470276 691.326416,510.470276 750.636108,510.470276 
	C750.636108,629.185547 750.636108,747.409058 750.636108,865.903748 
	C602.553345,865.903748 454.660156,865.903748 306.465240,865.903748 
	C306.465240,747.692261 306.465240,629.453552 306.465240,510.486786 
	C365.227051,510.486786 424.129639,510.486786 483.476746,510.892822 
	C485.625366,537.122314 504.703125,555.335999 529.668823,554.974426 
	C553.347595,554.631592 571.504517,536.026733 573.101501,510.470276 
M509.500000,777.151550 
	C544.652649,777.151672 579.805664,777.065002 614.957703,777.211426 
	C624.040161,777.249207 632.366760,775.189026 640.239258,770.731995 
	C663.029785,757.828918 668.722656,724.970032 651.890442,704.891418 
	C641.888550,692.960571 628.959473,688.217834 613.990906,688.190491 
	C559.179626,688.090454 504.368011,688.131592 449.556610,688.187195 
	C444.411407,688.192383 439.227448,688.354980 434.128174,688.984680 
	C403.247894,692.797852 386.788422,724.714783 399.674713,751.752136 
	C407.790161,768.779480 422.158539,777.051208 441.027008,777.133423 
	C463.517609,777.231445 486.008972,777.153381 509.500000,777.151550 
z"/>
<path fill="#FFFFFF" opacity="1.000000" stroke="none" 
	d="
M483.877289,421.521637 
	C426.393127,421.515259 368.908905,421.482849 311.424805,421.528839 
	C302.125275,421.536285 293.354492,420.038544 284.978638,415.586090 
	C271.370300,408.352142 264.071838,397.095734 262.133972,382.085846 
	C261.794312,379.454712 261.846405,376.763306 261.845398,374.099670 
	C261.829865,332.611053 261.835449,291.122467 261.836151,249.633850 
	C261.836182,247.839035 261.836121,246.044205 261.836121,244.052185 
	C439.634705,244.052185 617.029175,244.052185 794.841858,244.052185 
	C794.942383,245.179077 795.151794,246.433960 795.152283,247.688919 
	C795.169128,290.177246 795.055969,332.666016 795.225342,375.153687 
	C795.285095,390.146576 790.182007,402.603821 778.271240,411.721741 
	C769.007263,418.813477 758.188721,421.561615 746.485779,421.542450 
	C689.002014,421.448273 631.518066,421.511902 573.552734,421.103455 
	C571.380005,394.714386 551.570129,376.138214 526.579773,377.090790 
	C503.064850,377.987122 485.521759,396.240265 483.877289,421.521637 
z"/>
<path fill="#426491" opacity="1.000000" stroke="none" 
	d="
M483.921326,422.019409 
	C485.521759,396.240265 503.064850,377.987122 526.579773,377.090790 
	C551.570129,376.138214 571.380005,394.714386 573.092285,421.091675 
	C573.085144,450.822021 573.057007,480.147766 573.065186,509.971893 
	C571.504517,536.026733 553.347595,554.631592 529.668823,554.974426 
	C504.703125,555.335999 485.625366,537.122314 483.895996,510.893494 
	C483.902222,481.164459 483.933807,451.840820 483.921326,422.019409 
z"/>
<path fill="#3F6392" opacity="1.000000" stroke="none" 
	d="
M509.000000,777.151611 
	C486.008972,777.153381 463.517609,777.231445 441.027008,777.133423 
	C422.158539,777.051208 407.790161,768.779480 399.674713,751.752136 
	C386.788422,724.714783 403.247894,692.797852 434.128174,688.984680 
	C439.227448,688.354980 444.411407,688.192383 449.556610,688.187195 
	C504.368011,688.131592 559.179626,688.090454 613.990906,688.190491 
	C628.959473,688.217834 641.888550,692.960571 651.890442,704.891418 
	C668.722656,724.970032 663.029785,757.828918 640.239258,770.731995 
	C632.366760,775.189026 624.040161,777.249207 614.957703,777.211426 
	C579.805664,777.065002 544.652649,777.151672 509.000000,777.151611 
z"/>
</svg>