<svg version="1.1" id="Layer_1" xmlns="http://www.w3.org/2000/svg" xmlns:xlink="http://www.w3.org/1999/xlink" x="0px" y="0px"
	 width="100%" viewBox="0 0 1076 900" enable-background="new 0 0 1076 900" xml:space="preserve">
<path fill="#FFFFFE" opacity="1.000000" stroke="none" 
	d="
M741.000000,901.000000 
	C494.031158,901.000000 247.562332,901.000000 1.046744,901.000000 
	C1.046744,601.069092 1.046744,301.138184 1.046744,1.103634 
	C359.552216,1.103634 718.104492,1.103634 1076.828369,1.103634 
	C1076.828369,300.999908 1076.828369,600.999939 1076.828369,901.000000 
	C965.138123,901.000000 853.319031,901.000000 741.000000,901.000000 
M758.204163,528.613342 
	C766.158813,536.858521 774.033325,545.182922 782.082947,553.334351 
	C808.319519,579.903076 837.445740,602.813599 869.632141,621.755188 
	C882.063965,629.071350 894.753479,635.949646 907.959961,643.384521 
	C922.632996,587.265747 954.960876,553.040833 1016.486450,553.580017 
	C1015.084900,551.459961 1014.382812,550.186829 1013.485413,549.070862 
	C973.923889,499.875427 934.205322,450.805450 894.814514,401.473755 
	C865.587036,364.870300 838.332825,326.827881 813.737122,286.932495 
	C789.651367,247.864334 768.749207,207.195160 752.668579,164.143890 
	C751.642029,161.395584 750.792908,158.392349 750.750305,155.494629 
	C750.358276,128.841965 750.161499,102.186417 749.912231,75.531662 
	C749.893982,73.582985 749.909912,71.633995 749.909912,69.304916 
	C738.879333,69.304916 728.423767,69.508698 717.982666,69.209419 
	C713.505493,69.081093 711.970764,70.203621 712.072937,74.972198 
	C712.579895,98.622009 712.634338,122.281258 713.060059,145.933365 
	C713.125305,149.558502 712.139343,151.225693 708.501343,152.023468 
	C679.599060,158.361496 650.935059,166.046097 621.806274,171.027893 
	C581.009338,178.005219 539.965637,183.781113 498.856689,188.619736 
	C463.011169,192.838852 426.929901,195.057434 390.950928,198.138077 
	C382.882751,198.828918 374.806763,199.428757 366.154724,200.116562 
	C367.597534,203.913315 368.833954,207.147827 370.056671,210.387512 
	C386.780060,254.696594 406.688782,297.564819 428.957550,339.326599 
	C461.601349,400.545227 498.322906,459.310303 538.227112,516.003906 
	C589.324036,588.599548 641.315186,660.565857 692.904297,732.815186 
	C693.564392,733.739685 694.003723,734.821777 694.593567,735.918640 
	C744.720642,690.853149 803.846252,669.659302 868.847351,660.649780 
	C865.271545,657.588074 862.409607,655.068787 859.475647,652.636230 
	C830.035278,628.226624 801.643555,602.761780 780.265747,570.619934 
	C771.717346,557.767212 763.961853,544.387207 755.961853,530.516235 
	C756.603699,529.681885 757.245544,528.847534 758.204163,528.613342 
M577.173035,748.231567 
	C605.503052,750.734619 633.833069,753.237671 662.783508,755.795532 
	C661.437500,753.752258 660.423157,752.082092 659.283691,750.502014 
	C629.178955,708.755005 598.995667,667.064514 568.961121,625.267090 
	C522.982666,561.281494 477.551788,496.931946 436.789001,429.413330 
	C405.156158,377.017365 376.887360,322.927979 352.232056,266.893433 
	C343.741150,247.595932 338.256378,228.312195 338.773895,206.820541 
	C339.523346,175.699051 338.202881,144.526428 337.690735,113.376846 
	C337.582825,106.813087 337.152008,100.254646 336.886597,94.079849 
	C324.209747,94.079849 312.286530,94.079849 299.916107,94.079849 
	C299.916107,96.610939 299.888641,98.572960 299.920135,100.534035 
	C300.636658,145.176498 301.382202,189.818558 302.023438,234.462112 
	C302.060608,237.051239 301.767548,239.866211 300.775513,242.216156 
	C283.813843,282.395325 267.086548,322.679474 249.569611,362.616821 
	C218.517365,433.413635 184.700348,502.852722 146.102356,569.904358 
	C119.903587,615.416321 91.756584,659.655823 60.927849,702.177185 
	C55.606583,709.516724 50.261253,716.838806 44.904285,724.200195 
	C54.218044,724.200195 62.970551,724.271851 71.721550,724.187195 
	C101.542374,723.898743 131.364029,723.213745 161.182770,723.332520 
	C188.829041,723.442566 216.474792,724.289978 244.113495,725.070435 
	C248.421722,725.192078 250.158752,723.786560 251.253601,719.754089 
	C253.212891,712.537781 255.909103,705.525513 258.096832,698.366699 
	C277.374481,635.284851 287.524445,570.407593 295.956207,505.199585 
	C299.305511,479.297668 302.469330,453.371887 305.785431,427.465637 
	C308.847595,403.543396 311.807678,379.605530 315.180450,355.726471 
	C317.475464,339.477905 320.404144,323.318848 323.049469,307.119751 
	C324.169800,308.645355 324.687836,310.069427 324.877594,311.535950 
	C329.231384,345.185791 333.847626,378.805298 337.792389,412.503387 
	C341.931854,447.864746 344.711151,483.396301 349.386322,518.681030 
	C354.473450,557.074646 360.555939,595.356445 367.142059,633.525208 
	C372.748383,666.015747 381.676117,697.750610 392.126648,729.035278 
	C392.983063,731.599121 393.914886,733.070740 397.126648,733.255493 
	C408.587158,733.914795 420.019897,735.051514 431.465118,735.983215 
	C453.364502,737.765991 475.269867,739.476501 497.164185,741.319031 
	C523.532471,743.538147 549.891846,745.863403 577.173035,748.231567 
z"/>
<path fill="#C09746" opacity="1.000000" stroke="none" 
	d="
M755.845398,531.247192 
	C763.961853,544.387207 771.717346,557.767212 780.265747,570.619934 
	C801.643555,602.761780 830.035278,628.226624 859.475647,652.636230 
	C862.409607,655.068787 865.271545,657.588074 868.847351,660.649780 
	C803.846252,669.659302 744.720642,690.853149 694.593567,735.918640 
	C694.003723,734.821777 693.564392,733.739685 692.904297,732.815186 
	C641.315186,660.565857 589.324036,588.599548 538.227112,516.003906 
	C498.322906,459.310303 461.601349,400.545227 428.957550,339.326599 
	C406.688782,297.564819 386.780060,254.696594 370.056671,210.387512 
	C368.833954,207.147827 367.597534,203.913315 366.154724,200.116562 
	C374.806763,199.428757 382.882751,198.828918 390.950928,198.138077 
	C426.929901,195.057434 463.011169,192.838852 498.856689,188.619736 
	C539.965637,183.781113 581.009338,178.005219 621.806274,171.027893 
	C650.935059,166.046097 679.599060,158.361496 708.501343,152.023468 
	C712.139343,151.225693 713.125305,149.558502 713.060059,145.933365 
	C712.634338,122.281258 712.579895,98.622009 712.072937,74.972198 
	C711.970764,70.203621 713.505493,69.081093 717.982666,69.209419 
	C728.423767,69.508698 738.879333,69.304916 749.909912,69.304916 
	C749.909912,71.633995 749.893982,73.582985 749.912231,75.531662 
	C750.161499,102.186417 750.358276,128.841965 750.750305,155.494629 
	C750.792908,158.392349 751.642029,161.395584 752.668579,164.143890 
	C768.749207,207.195160 789.651367,247.864334 813.737122,286.932495 
	C838.332825,326.827881 865.587036,364.870300 894.814514,401.473755 
	C934.205322,450.805450 973.923889,499.875427 1013.485413,549.070862 
	C1014.382812,550.186829 1015.084900,551.459961 1016.486450,553.580017 
	C954.960876,553.040833 922.632996,587.265747 907.959961,643.384521 
	C894.753479,635.949646 882.063965,629.071350 869.632141,621.755188 
	C837.445740,602.813599 808.319519,579.903076 782.082947,553.334351 
	C774.033325,545.182922 766.158813,536.858521 758.015015,527.977051 
	C754.497009,523.360840 751.168152,519.380920 747.839233,515.400940 
	C747.471985,515.681824 747.104736,515.962708 746.737549,516.243530 
	C749.773499,521.244751 752.809448,526.245972 755.845398,531.247192 
z"/>
<path fill="#C09746" opacity="1.000000" stroke="none" 
	d="
M576.714050,748.187134 
	C549.891846,745.863403 523.532471,743.538147 497.164185,741.319031 
	C475.269867,739.476501 453.364502,737.765991 431.465118,735.983215 
	C420.019897,735.051514 408.587158,733.914795 397.126648,733.255493 
	C393.914886,733.070740 392.983063,731.599121 392.126648,729.035278 
	C381.676117,697.750610 372.748383,666.015747 367.142059,633.525208 
	C360.555939,595.356445 354.473450,557.074646 349.386322,518.681030 
	C344.711151,483.396301 341.931854,447.864746 337.792389,412.503387 
	C333.847626,378.805298 329.231384,345.185791 324.877594,311.535950 
	C324.687836,310.069427 324.169800,308.645355 323.049469,307.119751 
	C320.404144,323.318848 317.475464,339.477905 315.180450,355.726471 
	C311.807678,379.605530 308.847595,403.543396 305.785431,427.465637 
	C302.469330,453.371887 299.305511,479.297668 295.956207,505.199585 
	C287.524445,570.407593 277.374481,635.284851 258.096832,698.366699 
	C255.909103,705.525513 253.212891,712.537781 251.253601,719.754089 
	C250.158752,723.786560 248.421722,725.192078 244.113495,725.070435 
	C216.474792,724.289978 188.829041,723.442566 161.182770,723.332520 
	C131.364029,723.213745 101.542374,723.898743 71.721550,724.187195 
	C62.970551,724.271851 54.218044,724.200195 44.904285,724.200195 
	C50.261253,716.838806 55.606583,709.516724 60.927849,702.177185 
	C91.756584,659.655823 119.903587,615.416321 146.102356,569.904358 
	C184.700348,502.852722 218.517365,433.413635 249.569611,362.616821 
	C267.086548,322.679474 283.813843,282.395325 300.775513,242.216156 
	C301.767548,239.866211 302.060608,237.051239 302.023438,234.462112 
	C301.382202,189.818558 300.636658,145.176498 299.920135,100.534035 
	C299.888641,98.572960 299.916107,96.610939 299.916107,94.079849 
	C312.286530,94.079849 324.209747,94.079849 336.886597,94.079849 
	C337.152008,100.254646 337.582825,106.813087 337.690735,113.376846 
	C338.202881,144.526428 339.523346,175.699051 338.773895,206.820541 
	C338.256378,228.312195 343.741150,247.595932 352.232056,266.893433 
	C376.887360,322.927979 405.156158,377.017365 436.789001,429.413330 
	C477.551788,496.931946 522.982666,561.281494 568.961121,625.267090 
	C598.995667,667.064514 629.178955,708.755005 659.283691,750.502014 
	C660.423157,752.082092 661.437500,753.752258 662.783508,755.795532 
	C633.833069,753.237671 605.503052,750.734619 576.714050,748.187134 
z"/>
<path fill="#FBF3D8" opacity="1.000000" stroke="none" 
	d="
M755.903625,530.881714 
	C752.809448,526.245972 749.773499,521.244751 746.737549,516.243530 
	C747.104736,515.962708 747.471985,515.681824 747.839233,515.400940 
	C751.168152,519.380920 754.497009,523.360840 757.856689,527.676941 
	C757.245544,528.847534 756.603699,529.681885 755.903625,530.881714 
z"/>
</svg>