<svg version="1.1" id="Layer_1" xmlns="http://www.w3.org/2000/svg" xmlns:xlink="http://www.w3.org/1999/xlink" x="0px" y="0px"
	 width="100%" viewBox="0 0 1024 896" enable-background="new 0 0 1024 896" xml:space="preserve">
<path fill="#000000" opacity="1.000000" stroke="none" 
	d="
M0.999999,324.467957 
	C2.145961,323.355621 3.397119,322.845795 4.420870,322.045135 
	C11.267662,316.690521 9.854325,316.639130 16.403793,322.828766 
	C68.356041,371.926514 120.277039,421.057343 172.234070,470.150024 
	C244.054718,538.011292 315.806519,605.946045 387.803741,673.619568 
	C403.693176,688.554810 418.567719,704.665405 435.950897,717.923279 
	C455.398773,732.755859 477.419861,739.841492 502.007904,736.500610 
	C518.670532,734.236633 533.439941,726.848877 547.319458,717.677551 
	C564.497253,706.326599 579.073120,691.799561 594.528931,678.373413 
	C639.557068,639.258728 684.364807,599.890381 729.265747,560.629211 
	C772.787964,522.573547 816.316711,484.525391 859.845947,446.477814 
	C905.384094,406.674225 950.939575,366.890411 996.430054,327.032532 
	C998.884460,324.882050 1000.745422,324.472809 1003.247742,326.818695 
	C1006.892212,330.235352 1010.686035,333.503052 1014.547119,336.674744 
	C1017.337341,338.966797 1017.727783,340.670319 1014.666138,343.326691 
	C994.410706,360.900726 974.314087,378.657562 954.140381,396.325928 
	C925.318176,421.568878 896.487915,446.802795 867.635681,472.011505 
	C834.648560,500.832916 801.622009,529.609192 768.633972,558.429565 
	C736.143738,586.815063 703.773254,615.338379 671.178772,643.603455 
	C638.832336,671.653503 607.163513,700.488403 574.157166,727.772522 
	C553.538147,744.816772 529.914978,755.575745 503.369263,759.060608 
	C477.524109,762.453491 453.531342,756.074280 431.009399,743.409668 
	C422.380280,738.557373 414.586792,732.552368 407.433502,725.811279 
	C357.593475,678.843445 307.848969,631.774170 258.090820,584.719421 
	C188.356720,518.773926 118.647041,452.802582 48.904285,386.866241 
	C33.165913,371.986816 17.334330,357.205963 1.272829,342.189880 
	C1.000000,336.311951 1.000000,330.623932 0.999999,324.467957 
z"/>
<path fill="#000000" opacity="1.000000" stroke="none" 
	d="
M605.720825,414.650757 
	C633.064758,395.984985 665.582581,396.756470 691.050110,416.799347 
	C695.236389,420.093903 697.952576,419.755798 701.702698,416.373077 
	C732.505249,388.587891 763.419739,360.926605 794.342529,333.274933 
	C804.274780,324.393341 814.085938,315.350189 824.397217,306.925262 
	C836.977966,296.645966 851.158813,295.982391 865.132080,303.353943 
	C879.562317,310.966583 888.106506,323.046783 887.209106,340.089020 
	C886.739990,348.997314 882.098511,356.099976 875.526489,361.979095 
	C854.179504,381.075378 832.845764,400.186493 811.502319,419.286835 
	C784.324768,443.608063 757.139038,467.920197 729.965515,492.246033 
	C723.387329,498.134949 717.079651,504.352203 710.243042,509.921997 
	C679.231689,535.187073 650.342163,562.814697 620.855713,589.778381 
	C597.132324,611.472046 573.546936,633.318726 549.641296,654.809265 
	C544.071350,659.816528 538.612976,664.861389 533.365112,670.211975 
	C515.460632,688.466980 486.685028,689.197144 467.356232,671.891785 
	C398.594849,610.328430 329.921783,548.666382 261.191772,487.067871 
	C222.733795,452.600342 184.263336,418.146576 145.732681,383.760376 
	C124.605957,364.906097 125.116142,336.610138 146.640625,318.030273 
	C159.797470,306.673340 174.416687,301.918823 191.460556,305.979767 
	C198.864853,307.743958 205.308121,311.571838 210.991547,316.669128 
	C247.700241,349.591919 284.388519,382.537628 321.149506,415.401947 
	C366.979584,456.374115 412.869354,497.279572 458.745331,538.200378 
	C463.758118,542.671692 464.439728,542.610718 469.515381,537.972717 
	C511.449982,499.653534 553.375000,461.323792 595.346130,423.044678 
	C598.538879,420.132812 602.063599,417.584961 605.720825,414.650757 
z"/>
<path fill="#000000" opacity="1.000000" stroke="none" 
	d="
M751.174683,229.802185 
	C795.010681,272.017609 779.623108,343.547119 722.649353,361.928802 
	C674.437988,377.483490 626.753174,345.479187 620.633057,297.531189 
	C615.177673,254.790833 645.385254,215.243973 687.609741,209.882858 
	C711.587280,206.838501 732.677917,213.773438 751.174683,229.802185 
z"/>
</svg>